# xmcd
#
# Track frame offsets: 
#        150
#        19900
#        44655
#        59725
#        80115
#        94672
#        118995
#        141227
#        157285
#        176990
#
# Disc length: 2578 seconds
#
# Revision: 4
# Processed by: cddbd v1.5.2PL0 Copyright (c) Steve Scherf et al.
# Submitted via: ExactAudioCopy v1.0b4
#
DISCID=9f0a100a
DTITLE=Peter Green - Katmandu - A Case For The Blues
DYEAR=1987
DGENRE=Blues Rock
TTITLE0=Dust My Broom
TTITLE1=One More Night Without You
TTITLE2=Crane's Train Boogie
TTITLE3=Boogie All The Way
TTITLE4=Zulu Gone West
TTITLE5=Blowing All My Troubles Away
TTITLE6=Strangers Blues
TTITLE7=Sweet Sixteen
TTITLE8=Who's That Knocking
TTITLE9=The Case
EXTD=ID3G: 10\n(NB *This album formerly released as Katmandu]\nRecorde
EXTD=d January 1984\nPeter Green (Guitar]\nRay Dorset (Vocals]\nVince 
EXTD=Crane (Keyboards]\nLee Surtees (Bass]\nJeff Whittaker (Percussion
EXTD=]\nGreg Terry-Short (Drums)
EXTT0=
EXTT1=
EXTT2=
EXTT3=
EXTT4=
EXTT5=
EXTT6=
EXTT7=
EXTT8=
EXTT9=
PLAYORDER=
